<mxfile host="app.diagrams.net" modified="2021-10-27T09:33:16.962Z" agent="5.0 (Windows)" etag="3g8pAkEXA0Mp_7NRZRgJ" version="15.5.9" type="github">
  <diagram id="C5RBs43oDa-KdzZeNtuy" name="Page-1">
    <mxGraphModel dx="780" dy="779" grid="1" gridSize="10" guides="1" tooltips="1" connect="1" arrows="1" fold="1" page="1" pageScale="1" pageWidth="827" pageHeight="1169" math="0" shadow="0">
      <root>
        <mxCell id="WIyWlLk6GJQsqaUBKTNV-0" />
        <mxCell id="WIyWlLk6GJQsqaUBKTNV-1" parent="WIyWlLk6GJQsqaUBKTNV-0" />
        <mxCell id="NDl8WLapp-ioydFo2Br7-0" value="Generowanie danych do procesu szkolenia kursantów" style="text;html=1;strokeColor=none;fillColor=none;align=center;verticalAlign=middle;whiteSpace=wrap;rounded=0;" vertex="1" parent="WIyWlLk6GJQsqaUBKTNV-1">
          <mxGeometry x="215" y="20" width="310" height="30" as="geometry" />
        </mxCell>
        <mxCell id="NDl8WLapp-ioydFo2Br7-2" style="edgeStyle=orthogonalEdgeStyle;rounded=0;orthogonalLoop=1;jettySize=auto;html=1;" edge="1" parent="WIyWlLk6GJQsqaUBKTNV-1" source="NDl8WLapp-ioydFo2Br7-1">
          <mxGeometry relative="1" as="geometry">
            <mxPoint x="560" y="80" as="targetPoint" />
          </mxGeometry>
        </mxCell>
        <mxCell id="NDl8WLapp-ioydFo2Br7-5" value="" style="edgeStyle=orthogonalEdgeStyle;rounded=0;orthogonalLoop=1;jettySize=auto;html=1;" edge="1" parent="WIyWlLk6GJQsqaUBKTNV-1" source="NDl8WLapp-ioydFo2Br7-1" target="NDl8WLapp-ioydFo2Br7-4">
          <mxGeometry relative="1" as="geometry" />
        </mxCell>
        <mxCell id="NDl8WLapp-ioydFo2Br7-1" value="Wygenerowanie X kursantów i Y pracowników&lt;br&gt;na cały okres T0-T1-T2" style="rounded=1;whiteSpace=wrap;html=1;" vertex="1" parent="WIyWlLk6GJQsqaUBKTNV-1">
          <mxGeometry x="220" y="50" width="300" height="60" as="geometry" />
        </mxCell>
        <mxCell id="NDl8WLapp-ioydFo2Br7-3" value="Instruktorów będzie więcej niż wykładowców" style="ellipse;whiteSpace=wrap;html=1;" vertex="1" parent="WIyWlLk6GJQsqaUBKTNV-1">
          <mxGeometry x="560" y="40" width="190" height="80" as="geometry" />
        </mxCell>
        <mxCell id="NDl8WLapp-ioydFo2Br7-8" value="" style="edgeStyle=orthogonalEdgeStyle;rounded=0;orthogonalLoop=1;jettySize=auto;html=1;" edge="1" parent="WIyWlLk6GJQsqaUBKTNV-1" source="NDl8WLapp-ioydFo2Br7-4" target="NDl8WLapp-ioydFo2Br7-7">
          <mxGeometry relative="1" as="geometry" />
        </mxCell>
        <mxCell id="NDl8WLapp-ioydFo2Br7-4" value="Wygenerowanie kursu na dany miesiąc - zebranie kursantów zapisanych tym miesiącu do jednego zbioru" style="whiteSpace=wrap;html=1;rounded=1;" vertex="1" parent="WIyWlLk6GJQsqaUBKTNV-1">
          <mxGeometry x="190" y="160" width="360" height="60" as="geometry" />
        </mxCell>
        <mxCell id="NDl8WLapp-ioydFo2Br7-6" value="Co miesiąc" style="text;html=1;strokeColor=none;fillColor=none;align=center;verticalAlign=middle;whiteSpace=wrap;rounded=0;" vertex="1" parent="WIyWlLk6GJQsqaUBKTNV-1">
          <mxGeometry x="384" y="120" width="60" height="30" as="geometry" />
        </mxCell>
        <mxCell id="NDl8WLapp-ioydFo2Br7-11" value="" style="edgeStyle=orthogonalEdgeStyle;rounded=0;orthogonalLoop=1;jettySize=auto;html=1;" edge="1" parent="WIyWlLk6GJQsqaUBKTNV-1" source="NDl8WLapp-ioydFo2Br7-7" target="NDl8WLapp-ioydFo2Br7-10">
          <mxGeometry relative="1" as="geometry" />
        </mxCell>
        <mxCell id="NDl8WLapp-ioydFo2Br7-13" value="" style="edgeStyle=orthogonalEdgeStyle;rounded=0;orthogonalLoop=1;jettySize=auto;html=1;" edge="1" parent="WIyWlLk6GJQsqaUBKTNV-1" source="NDl8WLapp-ioydFo2Br7-7" target="NDl8WLapp-ioydFo2Br7-12">
          <mxGeometry relative="1" as="geometry" />
        </mxCell>
        <mxCell id="NDl8WLapp-ioydFo2Br7-7" value="Generowanie 30 wykładów dla studentów z danego miesiąca - tutaj może limit 100 studentów na jednym wykładzie" style="whiteSpace=wrap;html=1;rounded=1;" vertex="1" parent="WIyWlLk6GJQsqaUBKTNV-1">
          <mxGeometry x="190" y="240" width="360" height="60" as="geometry" />
        </mxCell>
        <mxCell id="NDl8WLapp-ioydFo2Br7-15" value="" style="edgeStyle=orthogonalEdgeStyle;rounded=0;orthogonalLoop=1;jettySize=auto;html=1;" edge="1" parent="WIyWlLk6GJQsqaUBKTNV-1" source="NDl8WLapp-ioydFo2Br7-10" target="NDl8WLapp-ioydFo2Br7-14">
          <mxGeometry relative="1" as="geometry" />
        </mxCell>
        <mxCell id="NDl8WLapp-ioydFo2Br7-10" value="Iterowanie po instruktorach i tworzenie im Jazd z kursantami co 2 godziny, aż wszystkim studentom wyczerpią się potrzebne do wyjeżdżenia godziny" style="whiteSpace=wrap;html=1;rounded=1;" vertex="1" parent="WIyWlLk6GJQsqaUBKTNV-1">
          <mxGeometry x="185" y="420" width="370" height="60" as="geometry" />
        </mxCell>
        <mxCell id="NDl8WLapp-ioydFo2Br7-12" value="Wygenerowanie każdemu studentowi podejścia do wewnętrzego egzaminu teoretycznego" style="whiteSpace=wrap;html=1;rounded=1;" vertex="1" parent="WIyWlLk6GJQsqaUBKTNV-1">
          <mxGeometry x="190" y="330" width="360" height="60" as="geometry" />
        </mxCell>
        <mxCell id="NDl8WLapp-ioydFo2Br7-16" style="edgeStyle=orthogonalEdgeStyle;rounded=0;orthogonalLoop=1;jettySize=auto;html=1;entryX=0;entryY=0.5;entryDx=0;entryDy=0;exitX=0;exitY=0.5;exitDx=0;exitDy=0;" edge="1" parent="WIyWlLk6GJQsqaUBKTNV-1" source="NDl8WLapp-ioydFo2Br7-20" target="NDl8WLapp-ioydFo2Br7-4">
          <mxGeometry relative="1" as="geometry">
            <mxPoint x="40" y="200" as="targetPoint" />
            <mxPoint x="130" y="610" as="sourcePoint" />
            <Array as="points">
              <mxPoint x="100" y="655" />
              <mxPoint x="100" y="190" />
            </Array>
          </mxGeometry>
        </mxCell>
        <mxCell id="NDl8WLapp-ioydFo2Br7-18" style="edgeStyle=orthogonalEdgeStyle;rounded=0;orthogonalLoop=1;jettySize=auto;html=1;" edge="1" parent="WIyWlLk6GJQsqaUBKTNV-1" source="NDl8WLapp-ioydFo2Br7-14">
          <mxGeometry relative="1" as="geometry">
            <mxPoint x="370" y="610" as="targetPoint" />
          </mxGeometry>
        </mxCell>
        <mxCell id="NDl8WLapp-ioydFo2Br7-14" value="Wygenerowanie każdemu studentowi wewnętrznego egzaminu praktycznego" style="whiteSpace=wrap;html=1;rounded=1;" vertex="1" parent="WIyWlLk6GJQsqaUBKTNV-1">
          <mxGeometry x="190" y="510" width="360" height="60" as="geometry" />
        </mxCell>
        <mxCell id="NDl8WLapp-ioydFo2Br7-17" value="Nie - następny miesiąc" style="text;html=1;strokeColor=none;fillColor=none;align=center;verticalAlign=middle;whiteSpace=wrap;rounded=0;" vertex="1" parent="WIyWlLk6GJQsqaUBKTNV-1">
          <mxGeometry x="150" y="620" width="130" height="30" as="geometry" />
        </mxCell>
        <mxCell id="NDl8WLapp-ioydFo2Br7-22" value="" style="edgeStyle=orthogonalEdgeStyle;rounded=0;orthogonalLoop=1;jettySize=auto;html=1;" edge="1" parent="WIyWlLk6GJQsqaUBKTNV-1" source="NDl8WLapp-ioydFo2Br7-20" target="NDl8WLapp-ioydFo2Br7-21">
          <mxGeometry relative="1" as="geometry">
            <Array as="points">
              <mxPoint x="370" y="850" />
              <mxPoint x="370" y="850" />
            </Array>
          </mxGeometry>
        </mxCell>
        <mxCell id="NDl8WLapp-ioydFo2Br7-20" value="Czy osiągnięto T1?" style="rhombus;whiteSpace=wrap;html=1;" vertex="1" parent="WIyWlLk6GJQsqaUBKTNV-1">
          <mxGeometry x="305" y="610" width="130" height="90" as="geometry" />
        </mxCell>
        <mxCell id="NDl8WLapp-ioydFo2Br7-28" style="edgeStyle=orthogonalEdgeStyle;rounded=0;orthogonalLoop=1;jettySize=auto;html=1;entryX=1;entryY=0.5;entryDx=0;entryDy=0;" edge="1" parent="WIyWlLk6GJQsqaUBKTNV-1" source="NDl8WLapp-ioydFo2Br7-21" target="NDl8WLapp-ioydFo2Br7-4">
          <mxGeometry relative="1" as="geometry">
            <Array as="points">
              <mxPoint x="570" y="915" />
              <mxPoint x="570" y="190" />
            </Array>
          </mxGeometry>
        </mxCell>
        <mxCell id="NDl8WLapp-ioydFo2Br7-21" value="Pauza - jakaś zmiana danych " style="ellipse;whiteSpace=wrap;html=1;" vertex="1" parent="WIyWlLk6GJQsqaUBKTNV-1">
          <mxGeometry x="302.5" y="880" width="135" height="70" as="geometry" />
        </mxCell>
        <mxCell id="NDl8WLapp-ioydFo2Br7-23" value="Nie" style="text;html=1;strokeColor=none;fillColor=none;align=center;verticalAlign=middle;whiteSpace=wrap;rounded=0;" vertex="1" parent="WIyWlLk6GJQsqaUBKTNV-1">
          <mxGeometry x="350" y="830" width="76" height="30" as="geometry" />
        </mxCell>
        <mxCell id="NDl8WLapp-ioydFo2Br7-25" style="edgeStyle=orthogonalEdgeStyle;rounded=0;orthogonalLoop=1;jettySize=auto;html=1;" edge="1" parent="WIyWlLk6GJQsqaUBKTNV-1" source="NDl8WLapp-ioydFo2Br7-24">
          <mxGeometry relative="1" as="geometry">
            <mxPoint x="230" y="775" as="targetPoint" />
          </mxGeometry>
        </mxCell>
        <mxCell id="NDl8WLapp-ioydFo2Br7-24" value="Czy osiągnięto T2?" style="rhombus;whiteSpace=wrap;html=1;" vertex="1" parent="WIyWlLk6GJQsqaUBKTNV-1">
          <mxGeometry x="305" y="730" width="130" height="90" as="geometry" />
        </mxCell>
        <mxCell id="NDl8WLapp-ioydFo2Br7-26" value="&lt;div&gt;Tak&lt;/div&gt;&lt;div&gt;&lt;br&gt;&lt;/div&gt;" style="text;html=1;strokeColor=none;fillColor=none;align=center;verticalAlign=middle;whiteSpace=wrap;rounded=0;" vertex="1" parent="WIyWlLk6GJQsqaUBKTNV-1">
          <mxGeometry x="245" y="760" width="60" height="30" as="geometry" />
        </mxCell>
        <mxCell id="NDl8WLapp-ioydFo2Br7-27" value="Koniec, generowanie bulk loada" style="shape=cube;whiteSpace=wrap;html=1;boundedLbl=1;backgroundOutline=1;darkOpacity=0.05;darkOpacity2=0.1;" vertex="1" parent="WIyWlLk6GJQsqaUBKTNV-1">
          <mxGeometry x="80" y="720" width="150" height="100" as="geometry" />
        </mxCell>
        <mxCell id="NDl8WLapp-ioydFo2Br7-29" value="Po pauzie lecim dalej" style="text;html=1;strokeColor=none;fillColor=none;align=center;verticalAlign=middle;whiteSpace=wrap;rounded=0;" vertex="1" parent="WIyWlLk6GJQsqaUBKTNV-1">
          <mxGeometry x="435" y="890" width="136" height="30" as="geometry" />
        </mxCell>
      </root>
    </mxGraphModel>
  </diagram>
</mxfile>
